HIERARCHY
ROOT hip
{
  OFFSET 0 0 0
  CHANNELS 6 Xposition Yposition Zposition Zrotation Yrotation Xrotation
  JOINT abdomen
  {
    OFFSET 0 20.6881 -0.73152
    CHANNELS 3 Zrotation Xrotation Yrotation
    JOINT chest
    {
      OFFSET 0 11.7043 -0.48768
      CHANNELS 3 Zrotation Xrotation Yrotation
      JOINT neck
      {
        OFFSET 0 22.1894 -2.19456
        CHANNELS 3 Zrotation Xrotation Yrotation
        JOINT head
        {
          OFFSET -0.24384 7.07133 1.2192
          CHANNELS 3 Zrotation Xrotation Yrotation
          JOINT leftEye
          {
            OFFSET 4.14528 8.04674 8.04672
            CHANNELS 3 Zrotation Xrotation Yrotation
            End Site
            {
              OFFSET 1 0 0
            }
          }
          JOINT rightEye
          {
            OFFSET -3.6576 8.04674 8.04672
            CHANNELS 3 Zrotation Xrotation Yrotation
            End Site
            {
              OFFSET 1 0 0
            }
          }
        }
      }
      JOINT rCollar
      {
        OFFSET -2.68224 19.2634 -4.8768
        CHANNELS 3 Zrotation Xrotation Yrotation
        JOINT rShldr
        {
          OFFSET -8.77824 -1.95073 1.46304
          CHANNELS 3 Zrotation Xrotation Yrotation
          JOINT rForeArm
          {
            OFFSET -28.1742 -1.7115 0.48768
            CHANNELS 3 Zrotation Xrotation Yrotation
            JOINT rHand
            {
              OFFSET -22.5879 0.773209 7.07136
              CHANNELS 3 Zrotation Xrotation Yrotation
              JOINT rThumb1
              {
                OFFSET -1.2192 -0.487915 3.41376
                CHANNELS 3 Zrotation Xrotation Yrotation
                JOINT rThumb2
                {
                  OFFSET -3.37035 -0.52449 3.41376
                  CHANNELS 3 Zrotation Xrotation Yrotation
                  End Site
                  {
                    OFFSET -1.78271 -1.18214 1.43049
                  }
                }
              }
              JOINT rIndex1
              {
                OFFSET -7.75947 0.938293 5.60832
                CHANNELS 3 Zrotation Xrotation Yrotation
                JOINT rIndex2
                {
                  OFFSET -2.54057 -0.884171 1.56538
                  CHANNELS 3 Zrotation Xrotation Yrotation
                  End Site
                  {
                    OFFSET -1.62519 -0.234802 1.16502
                  }
                }
              }
              JOINT rMid1
              {
                OFFSET -8.24714 1.18213 3.41376
                CHANNELS 3 Zrotation Xrotation Yrotation
                JOINT rMid2
                {
                  OFFSET -3.10165 -0.590103 1.0647
                  CHANNELS 3 Zrotation Xrotation Yrotation
                  End Site
                  {
                    OFFSET -2.48547 -0.328903 0.83742
                  }
                }
              }
              JOINT rRing1
              {
                OFFSET -8.82822 0.546677 1.51678
                CHANNELS 3 Zrotation Xrotation Yrotation
                JOINT rRing2
                {
                  OFFSET -2.60934 -0.819778 -0.0198488
                  CHANNELS 3 Zrotation Xrotation Yrotation
                  End Site
                  {
                    OFFSET -2.33842 -0.294052 0.168128
                  }
                }
              }
              JOINT rPinky1
              {
                OFFSET -8.27202 -0.0477905 -0.4584
                CHANNELS 3 Zrotation Xrotation Yrotation
                JOINT rPinky2
                {
                  OFFSET -1.82734 -0.647385 -0.700984
                  CHANNELS 3 Zrotation Xrotation Yrotation
                  End Site
                  {
                    OFFSET -1.69225 -0.51767 -0.607171
                  }
                }
              }
            }
          }
        }
      }
      JOINT lCollar
      {
        OFFSET 2.68224 19.2634 -4.8768
        CHANNELS 3 Zrotation Xrotation Yrotation
        JOINT lShldr
        {
          OFFSET 8.77824 -1.95073 1.46304
          CHANNELS 3 Zrotation Xrotation Yrotation
          JOINT lForeArm
          {
            OFFSET 28.1742 -1.7115 0.48768
            CHANNELS 3 Zrotation Xrotation Yrotation
            JOINT lHand
            {
              OFFSET 22.5879 0.773209 7.07136
              CHANNELS 3 Zrotation Xrotation Yrotation
              JOINT lThumb1
              {
                OFFSET 1.2192 -0.487915 3.41376
                CHANNELS 3 Zrotation Xrotation Yrotation
                JOINT lThumb2
                {
                  OFFSET 3.37035 -0.52449 3.41376
                  CHANNELS 3 Zrotation Xrotation Yrotation
                  End Site
                  {
                    OFFSET 1.78271 -1.18214 1.43049
                  }
                }
              }
              JOINT lIndex1
              {
                OFFSET 7.75947 0.938293 5.60832
                CHANNELS 3 Zrotation Xrotation Yrotation
                JOINT lIndex2
                {
                  OFFSET 2.54057 -0.884171 1.56538
                  CHANNELS 3 Zrotation Xrotation Yrotation
                  End Site
                  {
                    OFFSET 1.62519 -0.234802 1.16502
                  }
                }
              }
              JOINT lMid1
              {
                OFFSET 8.24714 1.18213 3.41376
                CHANNELS 3 Zrotation Xrotation Yrotation
                JOINT lMid2
                {
                  OFFSET 3.10165 -0.590103 1.0647
                  CHANNELS 3 Zrotation Xrotation Yrotation
                  End Site
                  {
                    OFFSET 2.48547 -0.328903 0.83742
                  }
                }
              }
              JOINT lRing1
              {
                OFFSET 8.82822 0.546677 1.51678
                CHANNELS 3 Zrotation Xrotation Yrotation
                JOINT lRing2
                {
                  OFFSET 2.60934 -0.819778 -0.0198488
                  CHANNELS 3 Zrotation Xrotation Yrotation
                  End Site
                  {
                    OFFSET 2.33842 -0.294052 0.168128
                  }
                }
              }
              JOINT lPinky1
              {
                OFFSET 8.27202 -0.0477905 -0.4584
                CHANNELS 3 Zrotation Xrotation Yrotation
                JOINT lPinky2
                {
                  OFFSET 1.82734 -0.647385 -0.700984
                  CHANNELS 3 Zrotation Xrotation Yrotation
                  End Site
                  {
                    OFFSET 1.69225 -0.51767 -0.607171
                  }
                }
              }
            }
          }
        }
      }
    }
  }
  JOINT rButtock
  {
    OFFSET -8.77824 4.35084 1.2192
    CHANNELS 3 Zrotation Xrotation Yrotation
    JOINT rThigh
    {
      OFFSET 0 -1.70687 -2.19456
      CHANNELS 3 Zrotation Xrotation Yrotation
      JOINT rShin
      {
        OFFSET 0 -36.8199 0.73152
        CHANNELS 3 Zrotation Xrotation Yrotation
        JOINT rFoot
        {
          OFFSET 0.73152 -45.1104 -5.12064
          CHANNELS 3 Zrotation Xrotation Yrotation
          End Site
          {
            OFFSET -1.1221 -3.69964 12.103
          }
        }
      }
    }
  }
  JOINT lButtock
  {
    OFFSET 8.77824 4.35084 1.2192
    CHANNELS 3 Zrotation Xrotation Yrotation
    JOINT lThigh
    {
      OFFSET 0 -1.70687 -2.19456
      CHANNELS 3 Zrotation Xrotation Yrotation
      JOINT lShin
      {
        OFFSET 0 -36.8199 0.73152
        CHANNELS 3 Zrotation Xrotation Yrotation
        JOINT lFoot
        {
          OFFSET -0.73152 -45.1104 -5.12064
          CHANNELS 3 Zrotation Xrotation Yrotation
          End Site
          {
            OFFSET 1.1221 -3.69964 12.103
          }
        }
      }
    }
  }
}
MOTION
Frames:	4
Frame Time:	0.03333
0.0 0.0 0.0 0.0 0.0 0.0 0.0 0.0 0.0 0.0 0.0 0.0 0.0 0.0 0.0 0.0 0.0 0.0 0.0 0.0 0.0 0.0 0.0 0.0 0.0 0.0 0.0 0.0 0.0 0.0 0.0 0.0 0.0 0.0 0.0 0.0 0.0 0.0 0.0 0.0 0.0 0.0 0.0 0.0 0.0 0.0 0.0 0.0 0.0 0.0 0.0 0.0 0.0 0.0 0.0 0.0 0.0 0.0 0.0 0.0 0.0 0.0 0.0 0.0 0.0 0.0 0.0 0.0 0.0 0.0 0.0 0.0 0.0 0.0 0.0 0.0 0.0 0.0 0.0 0.0 0.0 0.0 0.0 0.0 0.0 0.0 0.0 0.0 0.0 0.0 0.0 0.0 0.0 0.0 0.0 0.0 0.0 0.0 0.0 0.0 0.0 0.0 0.0 0.0 0.0 0.0 0.0 0.0 0.0 0.0 0.0 0.0 0.0 0.0 0.0 0.0 0.0 0.0 0.0 0.0 0.0 0.0 0.0 0.0 0.0 0.0 0.0 0.0 0.0 0.0 0.0 0.0
0.01 13.6605 -0.038 0.003197 -17.167025 -0.695505 0.055213 5.332958 -0.002841 -5.002476 2.870799 33.916858 -178.74861 5.823323 57.455357 -165.160724 -51.630697 53.00132 -42.306628 -16.399312 40.85082 -41.680439 -16.110782 40.788818 -91.235003 36.832 -14.110369 -150.569922 79.307935 -26.292346 -77.788334 -85.11519 71.267261 30.270004 -43.393898 -111.254496 -0.849106 3.137678 -62.618254 -174.583326 -46.506394 102.003516 -166.978973 38.978884 159.297957 97.511288 -62.889761 42.069487 -179.610699 40.615931 -178.701544 -174.258785 -34.289221 147.168598 -10.848813 4.945732 -19.530602 7.647318 45.875398 2.255517 0.056908 38.018001 5.707017 -149.066278 11.302236 -142.9522 -48.964651 51.170945 -27.43215 -5.542098 31.115402 -15.04705 1.693939 -57.058825 -155.826054 17.330642 22.806611 169.251359 107.573863 66.013663 -58.351379 158.608846 -36.945987 -107.505993 160.707481 -79.012881 -170.628751 13.891345 34.525613 -7.549274 42.843284 55.135358 -17.515245 -173.675872 -48.67956 -135.220081 63.64992 57.287975 -59.949644 156.835891 -28.107924 179.308566 48.096 45.702753 -62.259566 -1.89865 -0.422668 -0.781696 -50.996561 53.46792 -123.054489 -3.690772 70.473232 3.454538 -6.615839 -5.091711 -94.890378 62.433739 2.05773 -93.989457 59.555488 27.483974 101.691156 -5.138511 63.893978 -174.281382 -9.630953 -0.200603 -88.267136 -4.473784 -3.878217 -171.10024
0.4443 27.778999999999996 -0.21450000000000002 175.701871 7.277478 -174.88649 -18.700043 29.024865 -93.991448 74.204808 8.304988 99.977498 171.711785 49.951518 12.621554 -5.535418 61.997253 128.128877 -62.763553 -2.969571 4.866582 -56.403613 -8.22241 15.268928 -144.504293 10.987043 -165.00539 -108.758284 68.567496 75.375957 147.027551 -77.804432 26.627343 149.755155 -6.98883 142.523299 0.986071 21.728198 17.049492 -17.818567 31.223301 20.496053 61.652878 -11.841496 -16.441775 1.798033 -75.468684 -104.704452 92.897945 63.239426 4.895448 174.222905 -1.184555 -162.841964 78.033257 15.075825 -9.63065 24.505349 30.743436 7.960357 91.139181 -11.174613 -4.127877 49.663196 71.379963 -6.728528 157.841181 -50.88201 -167.796852 62.339426 -0.843583 2.557737 165.985887 -7.468834 67.525839 -11.557383 -15.844563 33.67192 22.275376 -80.471087 96.430863 78.371817 33.502153 -39.058062 -103.581228 78.711583 85.201796 -172.980737 -46.10101 -85.723818 -153.861105 42.955941 119.751637 168.482013 -8.406759 -127.019149 157.849326 41.423673 140.543905 173.073753 -65.272008 -159.868357 74.905383 -3.740278 86.698043 -0.496406 -58.183842 34.309983 139.495305 76.777456 -0.0 -138.242874 -7.252568 87.234087 79.500024 -50.082808 4.283222 138.063527 16.564674 143.34845 32.943094 0.556449 0.0 -79.545445 -12.075658 135.929445 53.192682 -56.621342 140.659187 161.887446 -31.860276 156.103098
1.2732 27.5301 -0.643 177.031724 14.579765 -174.948395 -24.727625 42.807653 -0.0 41.723659 -60.398633 39.256093 -175.565169 36.81092 101.331114 95.700314 -22.160847 32.85697 -62.825772 -4.383025 7.171044 -54.476956 -7.005476 13.561996 33.239567 63.893996 -15.37722 80.299957 -24.876394 55.898722 14.354205 -9.547769 84.623946 20.336728 56.917672 -23.419031 168.1914 -86.004224 20.721683 14.139802 -17.524389 40.672325 100.280916 55.147868 -46.100776 -170.021074 -24.777815 94.55465 107.453426 29.33805 -22.952735 15.788773 -70.559643 26.293027 -60.49305 -1.785268 -171.073452 20.260394 -43.335188 1.452801 -110.82764 27.187577 -141.310691 -167.869633 -78.516584 -111.288851 -20.729912 37.076281 -5.681749 -68.169806 9.31077 -22.358523 168.97182 -36.591663 -36.962143 -166.650279 -8.152347 -125.492315 -41.943483 -9.498561 33.229032 75.809186 33.696396 -54.552726 26.944505 -43.518916 127.142761 -92.440989 85.733565 136.596922 -23.643578 -40.961663 105.516248 -106.396414 -50.980177 -96.241549 -55.879109 48.759609 42.509954 107.719286 -16.632771 -156.208181 -28.003418 -6.347972 45.341956 126.474352 -74.886844 101.435158 -106.924846 19.064472 -42.604117 144.83018 -5.749228 0.0 14.120906 78.094642 120.582594 -146.427381 -8.74997 -150.160075 55.407674 10.387466 23.81832 -98.965413 13.923309 -52.90609 -50.779684 50.351751 -21.232462 82.358036 39.354321 113.903684
